<?xml version="1.0" encoding="UTF-8" standalone="no"?>
<!-- Created with Inkscape (http://www.inkscape.org/) -->

<svg
   version="1.1"
   id="svg278"
   width="108"
   height="26"
   viewBox="0 0 108 26"
   sodipodi:docname="text_logo.svg"
   inkscape:version="1.2.2 (732a01da63, 2022-12-09, custom)"
   xmlns:inkscape="http://www.inkscape.org/namespaces/inkscape"
   xmlns:sodipodi="http://sodipodi.sourceforge.net/DTD/sodipodi-0.dtd"
   xmlns="http://www.w3.org/2000/svg"
   xmlns:svg="http://www.w3.org/2000/svg">
  <defs
     id="defs282">
    <rect
       x="591.4823"
       y="149.15695"
       width="1042.3411"
       height="404.50388"
       id="rect10126" />
  </defs>
  <sodipodi:namedview
     id="namedview280"
     pagecolor="#ffffff"
     bordercolor="#000000"
     borderopacity="0.25"
     inkscape:showpageshadow="2"
     inkscape:pageopacity="0.0"
     inkscape:pagecheckerboard="0"
     inkscape:deskcolor="#d1d1d1"
     showgrid="false"
     inkscape:zoom="26.221354"
     inkscape:cx="50.111828"
     inkscape:cy="10.926209"
     inkscape:window-width="3768"
     inkscape:window-height="2096"
     inkscape:window-x="1992"
     inkscape:window-y="27"
     inkscape:window-maximized="1"
     inkscape:current-layer="layer1" />
  <g
     inkscape:groupmode="layer"
     id="layer1"
     inkscape:label="overlay"
     style="display:inline"
     transform="translate(-209.81785,-80.165622)">
    <g
       id="g10349">
      <path
         style="fill:#262626;fill-opacity:1;stroke-width:0.0721833;stroke-linecap:square;stroke-linejoin:round;stroke-dasharray:0.0721833, 0.144367"
         d="m 210.96322,89.679346 c 0,0 1.01858,-1.661071 2.58363,-2.788181 1.56505,-1.127111 3.48096,-1.398242 3.48096,-1.398242 l -0.0449,2.656402 c 0,0 -1.50977,0.432059 -2.34684,0.995674 -0.83707,0.563615 -1.67206,1.815197 -1.67206,1.815197 z"
         id="path560"
         sodipodi:nodetypes="czcczcc" />
      <path
         style="fill:#262626;fill-opacity:1;stroke-width:0.0721833;stroke-linecap:square;stroke-linejoin:round;stroke-dasharray:0.0721833, 0.144367"
         d="m 210.12183,93.529108 1.96828,0.509474 c 0,0 -0.11525,0.779609 -0.11438,1.167257 8.7e-4,0.387648 0.1176,1.14703 0.1176,1.14703 l -1.96944,0.370553 c 0,0 -0.18558,-0.715128 -0.18031,-1.578213 0.005,-0.863086 0.17825,-1.616101 0.17825,-1.616101 z"
         id="path611"
         sodipodi:nodetypes="cczcczc" />
      <path
         style="fill:#262626;fill-opacity:1;stroke-width:0.0721833;stroke-linecap:square;stroke-linejoin:round;stroke-dasharray:0.0721833, 0.144367"
         d="m 217.77115,91.841564 0.69141,-0.641971 -0.0748,-10.830631 -0.6132,0.01569 z"
         id="path613"
         sodipodi:nodetypes="ccccc" />
      <path
         style="fill:#262626;fill-opacity:1;stroke-width:0.0721833;stroke-linecap:square;stroke-linejoin:round;stroke-dasharray:0.0721833, 0.144367"
         d="m 219.03173,80.384578 0.70121,-0.01859 -0.0303,9.558453 c -0.0116,-0.02094 -0.69987,0.358328 -0.69987,0.358328 z"
         id="path615"
         sodipodi:nodetypes="ccccc" />
      <path
         style="fill:#262626;fill-opacity:1;stroke-width:0.0721833;stroke-linecap:square;stroke-linejoin:round;stroke-dasharray:0.0721833, 0.144367"
         d="m 220.38284,88.943077 0.50569,6.2e-4 0.0236,-4.562855 -0.52072,-0.37017 z"
         id="path617" />
      <path
         style="fill:#de3412;fill-opacity:1;stroke-width:0.0721833;stroke-linecap:square;stroke-linejoin:round;stroke-dasharray:0.0721833, 0.144367"
         d="m 221.59431,85.614692 h 0.55292 l 0.027,3.210357 -0.57601,-0.825542 z"
         id="path619"
         sodipodi:nodetypes="ccccc" />
      <path
         style="fill:#de3412;fill-opacity:1;stroke-width:0.0721833;stroke-linecap:square;stroke-linejoin:round;stroke-dasharray:0.0721833, 0.144367"
         d="m 210.89773,100.40263 1.87324,-1.200501 c 0,0 0.66614,1.259401 1.71125,2.048381 1.04512,0.78899 2.44288,1.04236 2.44288,1.04236 l -0.0262,2.50649 c 0,0 -1.50389,-0.0314 -3.51682,-1.5937 -1.76438,-1.36943 -2.48438,-2.80303 -2.48438,-2.80303 z"
         id="path621"
         sodipodi:nodetypes="cczccsc" />
      <path
         style="fill:#de3412;fill-opacity:1;stroke-width:0.0721833;stroke-linecap:square;stroke-linejoin:round;stroke-dasharray:0.0721833, 0.144367"
         d="m 228.91118,89.862052 c 0,0 -1.01858,-1.661071 -2.58364,-2.788181 -1.56505,-1.127111 -3.48095,-1.398242 -3.48095,-1.398242 l 0.0449,2.656401 c 0,0 1.50977,0.43206 2.34684,0.995675 0.83707,0.563615 1.67206,1.815197 1.67206,1.815197 z"
         id="path560-6"
         sodipodi:nodetypes="czcczcc" />
      <path
         style="fill:#de3412;fill-opacity:1;stroke-width:0.0721833;stroke-linecap:square;stroke-linejoin:round;stroke-dasharray:0.0721833, 0.144367"
         d="m 230.07061,93.487565 -1.96828,0.509474 c 0,0 0.11525,0.779609 0.11438,1.167257 -8.7e-4,0.387648 -0.1176,1.14703 -0.1176,1.14703 l 1.96944,0.370553 c 0,0 0.18558,-0.715128 0.18031,-1.578213 -0.005,-0.863086 -0.17825,-1.616101 -0.17825,-1.616101 z"
         id="path611-7"
         sodipodi:nodetypes="cczcczc" />
      <path
         style="fill:#262626;fill-opacity:1;stroke-width:0.0721833;stroke-linecap:square;stroke-linejoin:round;stroke-dasharray:0.0721833, 0.144367"
         d="m 228.97667,100.22208 -1.87325,-1.200502 c 0,0 -0.66613,1.259402 -1.71125,2.048382 -1.04511,0.78899 -2.44287,1.04236 -2.44287,1.04236 l 0.0262,2.50648 c 0,0 1.50389,-0.0314 3.51682,-1.5937 1.76438,-1.36942 2.48438,-2.80302 2.48438,-2.80302 z"
         id="path621-5"
         sodipodi:nodetypes="cczccsc" />
      <path
         style="fill:#de3412;fill-opacity:1;stroke-width:0.0721833;stroke-linecap:square;stroke-linejoin:round;stroke-dasharray:0.0721833, 0.144367"
         d="m 217.85372,95.218928 2.26307,-2.31 2.32369,2.303154 -2.38976,2.37545 z"
         id="path738" />
      <path
         style="fill:#de3412;fill-opacity:1;stroke-width:0.0721833;stroke-linecap:square;stroke-linejoin:round;stroke-dasharray:0.0721833, 0.144367"
         d="m 217.6377,98.830353 0.77915,-0.421318 0.008,7.299805 -0.76754,0.0107 z"
         id="path740" />
      <path
         style="fill:#262626;fill-opacity:1;stroke-width:0.0721833;stroke-linecap:square;stroke-linejoin:round;stroke-dasharray:0.0721833, 0.144367"
         d="m 219.03077,100.54966 0.62921,-0.53691 -0.0385,5.97433 -0.6018,0.0208 z"
         id="path742" />
      <path
         style="fill:#262626;fill-opacity:1;stroke-width:0.0721833;stroke-linecap:square;stroke-linejoin:round;stroke-dasharray:0.0721833, 0.144367"
         d="m 220.23553,101.44373 0.70758,0.003 -0.0284,3.84513 -0.66168,0.42979 z"
         id="path744"
         sodipodi:nodetypes="ccccc" />
      <path
         style="fill:#262626;fill-opacity:1;stroke-width:0.0721833;stroke-linecap:square;stroke-linejoin:round;stroke-dasharray:0.0721833, 0.144367"
         d="m 221.59757,102.33848 0.40312,-0.22266 -0.0215,2.53995 -0.37778,9e-4 z"
         id="path746" />
      <rect
         style="fill:#262626;fill-opacity:1;stroke-width:0.0681034;stroke-linecap:square;stroke-linejoin:round;stroke-dasharray:0.0681034, 0.136207"
         id="rect3383"
         width="0.71586335"
         height="5.6722517"
         x="83.34903"
         y="226.31494"
         transform="matrix(0.69458,-0.71941547,0.72153888,0.69237392,0,0)" />
      <rect
         style="display:inline;fill:#262626;fill-opacity:1;stroke-width:0.0681034;stroke-linecap:square;stroke-linejoin:round;stroke-dasharray:0.0681034, 0.136207"
         id="rect3383-6"
         width="0.71586329"
         height="5.6722517"
         x="220.72852"
         y="-101.21809"
         transform="matrix(0.68967046,0.72412337,-0.72200817,0.69188453,0,0)" />
    </g>
    <g
       aria-label="PyTorch"
       transform="matrix(0.05430148,0,0,0.05430148,198.8328,71.057323)"
       id="text10124"
       style="font-size:192px;font-family:'Freight Sans Regular';-inkscape-font-specification:'Freight Sans Regular, ';white-space:pre;shape-inside:url(#rect10126);display:inline;fill:#262626;stroke-width:2.158;stroke-linecap:square;stroke-linejoin:round;stroke-dasharray:2.158, 4.316">
      <path
         d="m 772.38819,287.62235 q 0,31.0933 -20.23997,46.93328 -19.94665,15.83999 -54.26661,16.13332 l -24.05331,0.29333 v 60.71993 H 648.895 V 228.36908 h 50.74661 q 18.77331,0 32.55996,4.4 13.78665,4.39999 22.58664,12.31999 9.09333,7.91999 13.19999,18.77331 4.39999,10.85332 4.39999,23.75997 z m -25.22663,1.17333 q 0,-37.25329 -48.69328,-37.25329 H 673.8283 v 75.97325 l 26.69331,-0.58667 q 23.17331,-0.58666 34.90663,-10.26665 11.73332,-9.97332 11.73332,-27.86664 z"
         style="font-size:293.333px;text-align:center;text-anchor:middle"
         id="path3488" />
      <path
         d="m 859.80081,413.16888 -9.09332,24.05331 q -4.98666,12.90665 -9.97332,21.41331 -4.98667,8.50665 -10.85333,13.49331 -5.57332,4.98666 -12.02665,7.04 -6.45332,2.34666 -14.37332,2.34666 -7.62665,0 -14.66665,-2.05333 -7.03999,-1.76 -13.78665,-4.98666 l 7.03999,-22.29331 q 5.28,2.64 10.85333,4.39999 5.57332,2.05334 10.55998,2.05334 3.81333,0 7.04,-1.17334 3.22666,-1.17333 6.15999,-4.69332 3.22666,-3.22667 6.15999,-8.79999 2.93333,-5.57333 6.45333,-14.37332 L 837.5075,408.76888 785.29423,277.3557 h 25.8133 l 39.01329,104.42655 37.83996,-104.42655 h 25.51997 z"
         style="font-size:293.333px;text-align:center;text-anchor:middle"
         id="path3490" />
      <path
         d="M 1008.5206,251.83572 V 411.70221 H 983.88065 V 251.83572 h -64.23993 v -23.46664 h 153.11988 v 23.46664 z"
         style="font-size:293.333px;text-align:center;text-anchor:middle"
         id="path3492" />
      <path
         d="m 1188.6266,315.19565 q 4.6933,13.19999 4.6933,29.33331 0,16.13331 -4.9866,29.3333 -4.9867,13.19998 -13.7867,22.58664 -8.8,9.38665 -21.12,14.66665 -12.0266,4.98666 -26.1066,4.98666 -14.3733,0 -26.4,-4.98666 -11.7333,-5.28 -20.5333,-14.37332 -8.5066,-9.38666 -13.2,-22.58664 -4.6933,-13.19999 -4.6933,-29.62663 0,-16.13332 4.6933,-29.33331 4.9867,-13.19998 13.7867,-22.58664 8.8,-9.67999 20.8266,-14.66665 12.32,-5.27999 26.9867,-5.27999 14.3733,0 26.1066,5.27999 12.0267,4.98666 20.5333,14.37332 8.5067,9.38666 13.2,22.87997 z m -21.7066,49.57328 q 2.6399,-9.09332 2.6399,-19.94664 0,-10.85332 -2.9333,-19.94665 -2.64,-9.38665 -8.2133,-16.13331 -5.28,-6.74666 -13.2,-10.55999 -7.6266,-3.81333 -17.6,-3.81333 -9.9733,0 -17.8933,3.81333 -7.6266,3.52 -12.9066,10.26666 -5.28,6.45332 -7.92,15.83998 -2.64,9.09332 -2.64,19.94664 0,10.85332 2.64,19.94665 2.9333,9.09332 8.2133,15.83998 5.5733,6.74666 13.2,10.55999 7.92,3.81333 17.8933,3.81333 9.9733,0 17.6,-3.52 7.92,-3.81333 13.2,-10.26665 5.28,-6.74666 7.92,-15.83999 z"
         style="font-size:293.333px;text-align:center;text-anchor:middle"
         id="path3494" />
      <path
         d="m 1250.2265,411.70221 h -24.0533 V 276.76903 l 24.0533,-3.81333 v 23.75998 q 7.04,-11.14666 15.84,-17.30665 8.8,-6.45333 21.7066,-6.45333 14.3734,0 25.2267,6.74666 l -6.16,22.58664 q -5.5733,-3.22666 -11.1467,-4.69333 -5.28,-1.46666 -10.2666,-1.46666 -9.68,0 -18.7733,7.03999 -8.8,6.74666 -16.4267,20.82664 z"
         style="font-size:293.333px;text-align:center;text-anchor:middle"
         id="path3496" />
      <path
         d="m 1436.4925,404.95555 q -18.1867,11.14666 -44.2933,11.14666 -15.84,0 -28.16,-4.98666 -12.32,-5.28 -20.8266,-14.66665 -8.2133,-9.67999 -12.6133,-22.87998 -4.4,-13.19998 -4.4,-29.03996 0,-16.13332 4.9866,-29.33331 4.9867,-13.19998 14.08,-22.58664 9.0933,-9.38665 21.4133,-14.37331 12.6133,-5.28 27.28,-5.28 13.2,0 23.4666,2.93333 10.56,2.64 19.9467,8.50666 l -6.16,21.99997 q -16.4267,-11.14665 -37.2533,-11.14665 -20.8266,0 -31.9733,13.19999 -10.8533,12.90665 -10.8533,35.78662 0,23.46664 11.44,36.66663 11.7333,12.90665 30.7999,12.90665 10.56,0 20.5333,-2.64 9.9734,-2.93333 18.1867,-8.50665 z"
         style="font-size:293.333px;text-align:center;text-anchor:middle"
         id="path3498" />
      <path
         d="m 1555.8788,411.70221 v -84.4799 q 0,-17.59998 -6.7466,-24.34664 -6.4534,-6.74666 -19.6534,-6.74666 -11.7333,0 -21.4133,4.69333 -9.3866,4.39999 -15.2533,9.97332 v 100.90655 h -24.0533 V 213.99577 l 24.0533,-3.81333 v 82.42657 q 9.3867,-9.38665 20.8267,-14.37331 11.4399,-5.28 24.3466,-5.28 19.36,0 30.5066,12.31999 11.44,12.02665 11.44,34.02663 v 92.39989 z"
         style="font-size:293.333px;text-align:center;text-anchor:middle"
         id="path3500" />
    </g>
    <g
       aria-label="ime"
       id="text428"
       style="font-size:240.288px;font-family:FreightSans-Medium;-inkscape-font-specification:FreightSans-Medium;text-align:center;text-anchor:middle;fill:#262626;stroke-width:2.5927;stroke-linecap:square;stroke-linejoin:round;stroke-dasharray:2.5927, 5.18541"
       transform="matrix(0.04519705,0,0,0.04519705,199.64246,75.954473)">
      <path
         d="m 1302.2262,451.12159 q 3.1238,4.32518 3.1238,9.8518 0,5.52663 -3.1238,9.85181 -3.1237,4.32519 -9.8518,4.32519 -6.728,0 -9.8518,-4.32519 -3.1237,-4.32518 -3.1237,-9.85181 0,-5.52662 3.1237,-9.8518 3.1238,-4.32519 9.8518,-4.32519 6.7281,0 9.8518,4.32519 z m -19.7036,158.34978 V 498.9389 l 19.7036,-3.12375 v 113.65622 z"
         id="path3503" />
      <path
         d="m 1473.7916,609.47137 v -68.72236 q 0,-14.41728 -5.2863,-20.18419 -5.0461,-6.0072 -15.859,-6.0072 -9.131,0 -16.0993,4.08489 -6.9684,3.84461 -11.7741,8.41008 v 6.72807 75.69071 h -19.7036 v -68.72236 q 0,-14.41728 -5.2864,-20.18419 -5.046,-6.0072 -15.859,-6.0072 -9.1309,0 -16.0993,3.36403 -6.9683,3.36403 -11.7741,7.9295 v 83.62022 h -19.7036 V 498.9389 l 19.7036,-3.12375 v 15.13815 q 15.859,-15.13815 35.3223,-15.13815 9.6116,0 17.0605,4.56548 7.6892,4.56547 11.7741,13.69641 8.8907,-8.89066 18.5022,-13.45613 9.8518,-4.80576 21.3856,-4.80576 15.1381,0 24.2691,10.0921 9.1309,10.09209 9.1309,28.35398 v 75.21014 z"
         id="path3505" />
      <path
         d="m 1539.3902,557.80946 q 0.2403,8.16979 2.8835,14.89785 2.8834,6.72807 7.4489,11.77411 4.8057,4.80576 11.2935,7.68922 6.7281,2.64317 14.6576,2.64317 8.6504,0 17.3007,-2.1626 8.8907,-2.40288 15.6187,-6.96835 l 3.6044,18.26189 q -7.449,4.56547 -17.0605,6.72806 -9.3712,2.40288 -19.9439,2.40288 -12.495,0 -22.8274,-4.08489 -10.092,-4.32519 -17.541,-12.0144 -7.2086,-7.68922 -11.2935,-18.0216 -4.0849,-10.57267 -4.0849,-23.30794 0,-13.21584 4.0849,-24.26908 4.3252,-11.05325 11.5338,-18.98276 7.2087,-7.9295 17.0605,-12.25468 10.0921,-4.32519 21.6259,-4.32519 20.1842,0 30.9971,11.77411 11.0533,11.53383 11.0533,31.23744 0,4.56548 -0.7209,9.37124 -0.4806,4.56547 -1.682,8.16979 h -3.364 q -3.1238,0 -8.4101,0.24029 -5.0461,0 -11.7741,0 h -13.4562 q -16.3395,0.24028 -37.0043,0.24028 z m 57.4288,-15.85901 v -1.68202 q 0,-12.25469 -6.0072,-19.70361 -6.0072,-7.44893 -18.9827,-7.44893 -6.9684,0 -12.7353,2.64317 -5.5266,2.40288 -9.6115,6.72806 -3.8446,4.0849 -6.2475,9.37123 -2.1626,5.28634 -2.8835,10.57267 z"
         id="path3507" />
    </g>
    <rect
       style="fill:#262626;stroke-width:0.116469;stroke-linecap:square;stroke-linejoin:round;stroke-dasharray:0.116469, 0.232937"
       id="rect482"
       width="1.3498493"
       height="10.044525"
       x="252.25163"
       y="93.394691" />
  </g>
</svg>
