<?xml version="1.0" encoding="UTF-8" standalone="no"?>
<!-- Created with Inkscape (http://www.inkscape.org/) -->

<svg
   version="1.1"
   id="svg278"
   width="650"
   height="800"
   viewBox="0 0 650 800"
   sodipodi:docname="logo.svg"
   inkscape:version="1.2.2 (732a01da63, 2022-12-09, custom)"
   xmlns:inkscape="http://www.inkscape.org/namespaces/inkscape"
   xmlns:sodipodi="http://sodipodi.sourceforge.net/DTD/sodipodi-0.dtd"
   xmlns="http://www.w3.org/2000/svg"
   xmlns:svg="http://www.w3.org/2000/svg">
  <defs
     id="defs282" />
  <sodipodi:namedview
     id="namedview280"
     pagecolor="#ffffff"
     bordercolor="#000000"
     borderopacity="0.25"
     inkscape:showpageshadow="2"
     inkscape:pageopacity="0.0"
     inkscape:pagecheckerboard="0"
     inkscape:deskcolor="#d1d1d1"
     showgrid="false"
     inkscape:zoom="0.68387775"
     inkscape:cx="343.62867"
     inkscape:cy="413.08552"
     inkscape:window-width="3768"
     inkscape:window-height="2096"
     inkscape:window-x="1992"
     inkscape:window-y="27"
     inkscape:window-maximized="1"
     inkscape:current-layer="svg278" />
  <path
     style="fill:#262626;fill-opacity:1;stroke-width:2.15725;stroke-linecap:square;stroke-linejoin:round;stroke-dasharray:2.15725, 4.31449"
     d="m 49.664385,293.81812 c 0,0 30.441058,-49.64227 77.213695,-83.32674 46.77263,-33.68446 104.03087,-41.78742 104.03087,-41.78742 l -1.34142,79.3884 c 0,0 -45.12036,12.9124 -70.13682,29.75642 -25.01647,16.84401 -49.97074,54.24841 -49.97074,54.24841 z"
     id="path560"
     sodipodi:nodetypes="czcczcc" />
  <path
     style="fill:#262626;fill-opacity:1;stroke-width:2.15725;stroke-linecap:square;stroke-linejoin:round;stroke-dasharray:2.15725, 4.31449"
     d="m 24.518958,408.87088 58.823304,15.22598 c 0,0 -3.444337,23.29918 -3.418286,34.88429 0.02609,11.58511 3.514753,34.2798 3.514753,34.2798 l -58.858242,11.07421 c 0,0 -5.546103,-21.37208 -5.388638,-47.16599 0.157475,-25.79391 5.327109,-48.29829 5.327109,-48.29829 z"
     id="path611"
     sodipodi:nodetypes="cczcczc" />
  <path
     style="fill:#262626;fill-opacity:1;stroke-width:2.15725;stroke-linecap:square;stroke-linejoin:round;stroke-dasharray:2.15725, 4.31449"
     d="m 253.12411,358.43749 20.66322,-19.18576 -2.23658,-323.680869 -18.3259,0.468948 z"
     id="path613"
     sodipodi:nodetypes="ccccc" />
  <path
     style="fill:#262626;fill-opacity:1;stroke-width:2.15725;stroke-linecap:square;stroke-linejoin:round;stroke-dasharray:2.15725, 4.31449"
     d="m 290.79757,16.037552 20.95608,-0.555665 -0.90528,285.660973 c -20.78706,10.34158 -13.55149,6.6637 -20.91615,10.70888 z"
     id="path615"
     sodipodi:nodetypes="ccccc" />
  <path
     style="fill:#262626;fill-opacity:1;stroke-width:2.15725;stroke-linecap:square;stroke-linejoin:round;stroke-dasharray:2.15725, 4.31449"
     d="m 331.17626,271.81421 15.11298,0.0185 0.70424,-136.36405 -15.56199,-11.0628 z"
     id="path617" />
  <path
     style="fill:#de3412;fill-opacity:1;stroke-width:2.15725;stroke-linecap:square;stroke-linejoin:round;stroke-dasharray:2.15725, 4.31449"
     d="m 367.38207,172.34313 h 16.52415 l 0.80794,95.94374 -17.21459,-24.67193 z"
     id="path619"
     sodipodi:nodetypes="ccccc" />
  <path
     style="fill:#de3412;fill-opacity:1;stroke-width:2.15725;stroke-linecap:square;stroke-linejoin:round;stroke-dasharray:2.15725, 4.31449"
     d="m 47.707279,614.2908 55.983111,-35.87777 c 0,0 19.908,37.63806 51.14192,61.21741 31.23392,23.57936 73.00694,31.15162 73.00694,31.15162 l -0.782,74.90792 c 0,0 -44.94479,-0.9373 -105.10268,-47.6288 C 69.224863,657.13506 47.707279,614.2908 47.707279,614.2908 Z"
     id="path621"
     sodipodi:nodetypes="cczccsc" />
  <path
     style="fill:#de3412;fill-opacity:1;stroke-width:2.15725;stroke-linecap:square;stroke-linejoin:round;stroke-dasharray:2.15725, 4.31449"
     d="m 586.05161,299.27841 c 0,0 -30.44106,-49.64227 -77.2137,-83.32674 -46.77263,-33.68446 -104.03087,-41.78742 -104.03087,-41.78742 l 1.34142,79.3884 c 0,0 45.12036,12.9124 70.13682,29.75642 25.01647,16.84401 49.97074,54.24841 49.97074,54.24841 z"
     id="path560-6"
     sodipodi:nodetypes="czcczcc" />
  <path
     style="fill:#de3412;fill-opacity:1;stroke-width:2.15725;stroke-linecap:square;stroke-linejoin:round;stroke-dasharray:2.15725, 4.31449"
     d="m 620.702,407.62935 -58.8233,15.22598 c 0,0 3.44434,23.29917 3.41828,34.88428 -0.0261,11.58512 -3.51475,34.2798 -3.51475,34.2798 l 58.85824,11.07421 c 0,0 5.54611,-21.37207 5.38864,-47.16598 -0.15747,-25.79392 -5.32711,-48.29829 -5.32711,-48.29829 z"
     id="path611-7"
     sodipodi:nodetypes="cczcczc" />
  <path
     style="fill:#262626;fill-opacity:1;stroke-width:2.15725;stroke-linecap:square;stroke-linejoin:round;stroke-dasharray:2.15725, 4.31449"
     d="m 588.00871,608.89489 -55.9831,-35.87777 c 0,0 -19.90801,37.63805 -51.14193,61.21741 -31.23392,23.57935 -73.00694,31.15162 -73.00694,31.15162 l 0.78201,74.90789 c 0,0 44.94478,-0.93727 105.10267,-47.62877 52.72971,-40.92613 74.24729,-83.77038 74.24729,-83.77038 z"
     id="path621-5"
     sodipodi:nodetypes="cczccsc" />
  <path
     style="fill:#de3412;fill-opacity:1;stroke-width:2.15725;stroke-linecap:square;stroke-linejoin:round;stroke-dasharray:2.15725, 4.31449"
     d="m 255.59185,459.37233 67.63335,-69.03595 69.44505,68.83134 -71.41948,70.99196 z"
     id="path738" />
  <path
     style="fill:#de3412;fill-opacity:1;stroke-width:2.15725;stroke-linecap:square;stroke-linejoin:round;stroke-dasharray:2.15725, 4.31449"
     d="m 249.13589,567.30224 23.28536,-12.59138 0.22777,218.15975 -22.93838,0.31858 z"
     id="path740" />
  <path
     style="fill:#262626;fill-opacity:1;stroke-width:2.15725;stroke-linecap:square;stroke-linejoin:round;stroke-dasharray:2.15725, 4.31449"
     d="m 290.76882,618.68495 18.80434,-16.0459 -1.15196,178.54688 -17.98531,0.62154 z"
     id="path742" />
  <path
     style="fill:#262626;fill-opacity:1;stroke-width:2.15725;stroke-linecap:square;stroke-linejoin:round;stroke-dasharray:2.15725, 4.31449"
     d="m 326.77374,645.40491 21.14659,0.0811 -0.84989,114.91416 -19.77485,12.84457 z"
     id="path744"
     sodipodi:nodetypes="ccccc" />
  <path
     style="fill:#262626;fill-opacity:1;stroke-width:2.15725;stroke-linecap:square;stroke-linejoin:round;stroke-dasharray:2.15725, 4.31449"
     d="m 367.47929,672.14507 12.0475,-6.65443 -0.64223,75.9081 -11.29025,0.027 z"
     id="path746" />
  <rect
     style="fill:#262626;fill-opacity:1;stroke-width:2.03532;stroke-linecap:square;stroke-linejoin:round;stroke-dasharray:2.03532, 4.07064"
     id="rect3383"
     width="21.394068"
     height="169.51915"
     x="-118.13261"
     y="606.03735"
     transform="matrix(0.69457998,-0.71941549,0.72153886,0.69237394,0,0)" />
  <rect
     style="display:inline;fill:#262626;fill-opacity:1;stroke-width:2.03532;stroke-linecap:square;stroke-linejoin:round;stroke-dasharray:2.03532, 4.07064"
     id="rect3383-6"
     width="21.394068"
     height="169.51915"
     x="545.84094"
     y="-141.25066"
     transform="matrix(0.68967054,0.7241233,-0.72200819,0.69188451,0,0)" />
</svg>
