<?xml version="1.0" encoding="UTF-8" standalone="no"?>
<!-- Generator: Adobe Illustrator 17.1.0, SVG Export Plug-In . SVG Version: 6.00 Build 0)  -->

<svg
   version="1.1"
   id="Layer_1"
   x="0px"
   y="0px"
   viewBox="0.6 539.9 710.80001 120.2"
   enable-background="new 0.6 539.9 487.3 120.2"
   xml:space="preserve"
   sodipodi:docname="logo.svg"
   inkscape:version="1.2.2 (b0a8486541, 2022-12-01)"
   width="710.79999"
   height="120.2"
   xmlns:inkscape="http://www.inkscape.org/namespaces/inkscape"
   xmlns:sodipodi="http://sodipodi.sourceforge.net/DTD/sodipodi-0.dtd"
   xmlns="http://www.w3.org/2000/svg"
   xmlns:svg="http://www.w3.org/2000/svg"><defs
   id="defs10213">
	
	
</defs><sodipodi:namedview
   id="namedview10211"
   pagecolor="#ffffff"
   bordercolor="#000000"
   borderopacity="0.25"
   inkscape:showpageshadow="2"
   inkscape:pageopacity="0.0"
   inkscape:pagecheckerboard="0"
   inkscape:deskcolor="#d1d1d1"
   showgrid="false"
   inkscape:zoom="4"
   inkscape:cx="275"
   inkscape:cy="36.25"
   inkscape:window-width="1854"
   inkscape:window-height="1011"
   inkscape:window-x="1986"
   inkscape:window-y="32"
   inkscape:window-maximized="1"
   inkscape:current-layer="Layer_1"
   showguides="true"><sodipodi:guide
     position="14.1875,96.293749"
     orientation="0.70710678,-0.70710678"
     id="guide8790"
     inkscape:locked="false" /><sodipodi:guide
     position="55.154277,85.583576"
     orientation="0.70710678,-0.70710678"
     id="guide8792"
     inkscape:locked="false" /><sodipodi:guide
     position="-14.1875,86.262499"
     orientation="0,-1"
     id="guide8794"
     inkscape:locked="false" /><sodipodi:guide
     position="16.996716,48.151357"
     orientation="1,0"
     id="guide8796"
     inkscape:locked="false" /><sodipodi:guide
     position="17.846116,47.505313"
     orientation="0,-1"
     id="guide8798"
     inkscape:locked="false" /><sodipodi:guide
     position="55.861048,86.61059"
     orientation="1,0"
     id="guide8800"
     inkscape:locked="false" /><sodipodi:guide
     position="55.678303,47.655657"
     orientation="-0.70710678,-0.70710678"
     id="guide8802"
     inkscape:locked="false" /><sodipodi:guide
     position="36.971351,66.931139"
     orientation="0,-1"
     id="guide8804"
     inkscape:locked="false" /><sodipodi:guide
     position="56.026809,47.634889"
     orientation="0.70710678,-0.70710678"
     id="guide8861"
     inkscape:locked="false" /><sodipodi:guide
     position="16.628403,47.906889"
     orientation="-0.70710678,-0.70710678"
     id="guide8863"
     inkscape:locked="false" /><sodipodi:guide
     position="36.395276,77.404215"
     orientation="1,0"
     id="guide8865"
     inkscape:locked="false" /><sodipodi:guide
     position="45.939845,76.845514"
     orientation="-0.70710678,-0.70710678"
     id="guide8869"
     inkscape:locked="false" /><sodipodi:guide
     position="51.691072,76.649854"
     orientation="0,-1"
     id="guide8871"
     inkscape:locked="false" /><sodipodi:guide
     position="46.138719,75.320815"
     orientation="1,0"
     id="guide8873"
     inkscape:locked="false" /><sodipodi:guide
     position="40.687501,72.371874"
     orientation="-0.70710678,-0.70710678"
     id="guide8877"
     inkscape:locked="false" /><sodipodi:guide
     position="41.610566,71.792708"
     orientation="0,-1"
     id="guide8879"
     inkscape:locked="false" /><sodipodi:guide
     position="41.281251,74.418749"
     orientation="1,0"
     id="guide8883"
     inkscape:locked="false" /><sodipodi:guide
     position="41.777637,77.14502"
     orientation="0.70710678,-0.70710678"
     id="guide8887"
     inkscape:locked="false" /><sodipodi:guide
     position="38.835632,77.121728"
     orientation="1,0"
     id="guide8889"
     inkscape:locked="false" /><sodipodi:guide
     position="34.813962,74.22701"
     orientation="0,-1"
     id="guide8891"
     inkscape:locked="false" /><sodipodi:guide
     position="39.951535,72.901184"
     orientation="0.70710678,-0.70710678"
     id="guide8893"
     inkscape:locked="false" /><sodipodi:guide
     position="41.023243,74.492175"
     orientation="-0.70710678,-0.70710678"
     id="guide8895"
     inkscape:locked="false" /><sodipodi:guide
     position="32.449573,75.453398"
     orientation="0,-1"
     id="guide8897"
     inkscape:locked="false" /><sodipodi:guide
     position="40.06202,77.86198"
     orientation="1,0"
     id="guide8899"
     inkscape:locked="false" /><sodipodi:guide
     position="40.194602,74.370641"
     orientation="0.70710678,-0.70710678"
     id="guide8903"
     inkscape:locked="false" /><sodipodi:guide
     position="49.218752,83.293749"
     orientation="-0.70710678,-0.70710678"
     id="guide9015"
     inkscape:locked="false" /><sodipodi:guide
     position="41.812501,67.465624"
     orientation="0.70710678,-0.70710678"
     id="guide9017"
     inkscape:locked="false" /><sodipodi:guide
     position="35.687501,69.356249"
     orientation="0,-1"
     id="guide9019"
     inkscape:locked="false" /><sodipodi:guide
     position="43.696764,70.673796"
     orientation="1,0"
     id="guide9021"
     inkscape:locked="false" /><sodipodi:guide
     position="41.796876,69.903124"
     orientation="0.70710678,-0.70710678"
     id="guide9025"
     inkscape:locked="false" /><sodipodi:guide
     position="43.218751,70.590624"
     orientation="0,-1"
     id="guide9029"
     inkscape:locked="false" /><sodipodi:guide
     position="42.921876,69.809374"
     orientation="0.70710678,-0.70710678"
     id="guide9031"
     inkscape:locked="false" /><sodipodi:guide
     position="41.012195,61.775301"
     orientation="0.70710678,-0.70710678"
     id="guide9119"
     inkscape:locked="false" /><sodipodi:guide
     position="26.693282,88.380194"
     orientation="1,0"
     id="guide9241"
     inkscape:locked="false" /><sodipodi:guide
     position="20.162995,79.784604"
     orientation="0.70710678,-0.70710678"
     id="guide10023"
     inkscape:locked="false" /><sodipodi:guide
     position="21.843751,88.949999"
     orientation="1,0"
     id="guide10025"
     inkscape:locked="false" /><sodipodi:guide
     position="31.562501,96.699999"
     orientation="1,0"
     id="guide10029"
     inkscape:locked="false" /><sodipodi:guide
     position="35.687501,104.0125"
     orientation="0,-1"
     id="guide10497"
     inkscape:locked="false" /><sodipodi:guide
     position="39.062501,30.074998"
     orientation="0,-1"
     id="guide10499"
     inkscape:locked="false" /></sodipodi:namedview>
<g
   id="g8227"
   transform="translate(-0.03080955,0.00925)"
   style="display:inline;stroke:none;stroke-width:0.1;stroke-dasharray:none;stroke-opacity:1;fill:#ee4c2c;fill-opacity:1">
	<path
   id="path10240"
   style="display:none;stroke:none;stroke-width:0.1;stroke-dasharray:none;stroke-opacity:1;fill:#ee4c2c;fill-opacity:1"
   d="M 37.025341,630.08216 V 620.797 c -1.61721,-1.3e-4 -3.234027,-0.14359 -4.828125,-0.42969 v 9.36133 c 1.601916,0.22865 3.215438,0.33833 4.828125,0.35352 z" /><path
   id="path8223"
   style="display:inline;stroke:none;stroke-width:0.1;stroke-dasharray:none;stroke-opacity:1;fill:#ee4c2c;fill-opacity:1"
   d="m 32.197216,629.72864 v -9.36133 c -1.663037,-0.29846 -3.302079,-0.74947 -4.894531,-1.35937 v 9.67969 c 1.61114,0.46085 3.247454,0.80592 4.894531,1.04101 z" /><path
   id="path10235"
   style="display:none;stroke:none;stroke-width:0.1;stroke-dasharray:none;stroke-opacity:1;fill:#ee4c2c;fill-opacity:1"
   d="m 22.482372,616.57239 v 10.34766 c 1.574426,0.70132 3.18291,1.29921 4.820313,1.76758 v -9.67969 c -1.668087,-0.63887 -3.281901,-1.4549 -4.820313,-2.43555 z" /><path
   id="path10250"
   style="display:inline;stroke:none;stroke-width:0.1;stroke-dasharray:none;stroke-opacity:1;fill:#ee4c2c;fill-opacity:1"
   d="m 17.621044,612.61731 v 11.67578 c 1.568872,1.00292 3.19225,1.88347 4.861328,2.62696 v -10.34766 c -1.70094,-1.08425 -3.309118,-2.37114 -4.783203,-3.87305 -0.02687,-0.0269 -0.05139,-0.0551 -0.07813,-0.082 z" /><path
   id="path10245"
   style="display:inline;fill:#ee4c2c;fill-opacity:1;stroke:none;stroke-width:0.1;stroke-dasharray:none;stroke-opacity:1"
   d="m 63.09956,567.30091 -6.59961,6.59961 c 10.799956,10.79992 10.799956,28.19886 0,38.79882 -5.399833,5.39985 -12.449358,8.09821 -19.474609,8.09766 v 9.28516 c 9.475512,0.0892 18.939223,-3.49446 26.074219,-10.78125 14.39994,-14.49996 14.39994,-37.60008 0,-52 z" /><path
   id="path10255"
   style="fill:#ee4c2c;fill-opacity:1;stroke:none;stroke-width:0.1;stroke-dasharray:none;stroke-opacity:1"
   d="m 17.640575,561.06067 -6.240234,6.24024 c -14.3999432,14.39992 -14.3999432,37.60004 0,52 1.928055,1.92805 4.018934,3.58468 6.220703,4.99218 V 612.61731 C 6.9216363,601.83179 6.9278051,584.5401 17.640575,573.96106 Z" /><path
   id="path10198"
   style="display:none;stroke:none;stroke-width:0.1;stroke-dasharray:none;stroke-opacity:1;fill:#ee4c2c;fill-opacity:1"
   d="m 22.492138,569.10755 v -12.89844 l -4.851563,4.85156 v 12.90039 c 0.02009,-0.0198 0.03843,-0.0408 0.05859,-0.0605 z" /><path
   id="path10219"
   style="stroke:none;stroke-width:0.1;stroke-dasharray:none;stroke-opacity:1;fill:#ee4c2c;fill-opacity:1"
   d="m 27.345653,564.25403 v -12.89844 l -4.853515,4.85352 v 12.89844 z" /><path
   id="path10224"
   style="display:none;stroke:none;stroke-width:0.1;stroke-dasharray:none;stroke-opacity:1;fill:#ee4c2c;fill-opacity:1"
   d="m 32.319187,559.27573 v -12.90039 l -4.873047,4.87304 v 12.89844 z" /><path
   id="path10229"
   style="stroke:none;stroke-width:0.1;stroke-dasharray:none;stroke-opacity:1;fill:#ee4c2c;fill-opacity:1"
   d="m 37.199169,541.50013 -4.980469,4.98242 v 12.90039 l 2.582031,-2.58203 2.398438,-2.40039 z" />
	<circle
   fill="#ee4c2c"
   cx="50.200001"
   cy="560.90002"
   r="4.8000002"
   id="circle8225"
   style="stroke:none;stroke-width:0.1;stroke-dasharray:none;stroke-opacity:1;fill:#ee4c2c;fill-opacity:1" />
</g>

<g
   id="g10215"
   style="stroke:none"><g
     aria-label="Py"
     id="text417"
     style="font-size:118.067px;font-family:FreightSans-Light;-inkscape-font-specification:FreightSans-Light;text-align:center;text-anchor:middle;fill:#ffffff;stroke-width:0.105895;stroke-linecap:square;stroke-linejoin:round"><path
       d="m 162.37859,579.21648 q 0,12.1609 -8.02856,18.30039 -7.91049,6.13948 -21.72433,6.37561 l -10.03569,0.11807 v 25.97474 h -7.55629 v -73.79188 h 18.53652 q 7.32015,0 12.75123,1.77101 5.43109,1.65294 8.9731,4.72268 3.54201,2.95167 5.31301,7.20209 1.77101,4.25041 1.77101,9.32729 z m -7.79243,0.3542 q 0,-7.91049 -5.43108,-12.1609 -5.43108,-4.25041 -15.82098,-4.25041 h -10.74409 v 33.88523 l 10.50796,-0.23614 q 10.50796,-0.23613 15.93905,-4.36848 5.54914,-4.25041 5.54914,-12.8693 z"
       style="font-family:FreightSans-Book;-inkscape-font-specification:FreightSans-Book"
       id="path364" /><path
       d="m 196.02748,629.39496 -4.36848,11.68863 q -1.88907,4.95881 -3.89621,8.26469 -1.88907,3.30587 -4.01428,5.19495 -2.12521,2.00714 -4.48655,2.71554 -2.36134,0.82647 -5.07688,0.82647 -3.06974,0 -5.54915,-0.70841 -2.4794,-0.7084 -4.95881,-1.771 l 2.24327,-6.72982 q 2.00714,1.0626 4.01428,1.65294 2.00714,0.7084 4.25041,0.7084 1.53487,0 2.83361,-0.59033 1.4168,-0.47227 2.71554,-1.88908 1.41681,-1.29873 2.71554,-3.77814 1.41681,-2.36134 2.83361,-6.25755 l 3.66008,-9.56343 -21.134,-53.24822 h 7.91049 l 17.00165,44.62933 16.64745,-44.62933 h 7.67435 z"
       style="font-family:FreightSans-Book;-inkscape-font-specification:FreightSans-Book"
       id="path366" /></g><g
     aria-label="Torch"
     id="text418"
     style="font-size:118.067px;font-family:FreightSans-Black;-inkscape-font-specification:FreightSans-Black;text-align:center;letter-spacing:-1.98456px;text-anchor:middle;fill:#ffffff;stroke-width:0.108159;stroke-linecap:square;stroke-linejoin:round"><path
       d="m 258.61206,563.21091 v 66.70785 h -7.55629 v -66.70785 h -25.97474 v -7.08402 h 59.50577 v 7.08402 z"
       style="font-family:FreightSans-Book;-inkscape-font-specification:FreightSans-Book"
       id="path369" /><path
       d="m 329.71096,591.07472 q 2.00714,5.19495 2.00714,11.68863 0,6.49369 -2.1252,11.8067 -2.00714,5.19495 -5.54915,8.97309 -3.54201,3.77815 -8.38276,5.90335 -4.84075,2.00714 -10.50796,2.00714 -5.66722,0 -10.50796,-2.00714 -4.72268,-2.00713 -8.26469,-5.66721 -3.42395,-3.77815 -5.43109,-8.97309 -1.88907,-5.31302 -1.88907,-11.8067 0,-6.49369 2.00714,-11.68864 2.12521,-5.31301 5.66722,-9.09116 3.54201,-3.77814 8.38275,-5.78528 4.95882,-2.12521 10.62603,-2.12521 5.66722,0 10.3899,2.00714 4.84075,2.00714 8.26469,5.78529 3.42394,3.66007 5.31301,8.97309 z m -5.19494,11.92477 q 0,-4.95882 -1.41681,-8.9731 -1.29873,-4.13234 -3.89621,-6.96595 -2.47941,-2.95167 -6.02142,-4.48655 -3.54201,-1.65293 -7.79242,-1.65293 -4.25041,0 -7.79242,1.65293 -3.54201,1.53488 -6.02142,4.48655 -2.4794,2.95168 -3.89621,6.96595 -1.29873,4.01428 -1.29873,8.73696 0,4.95882 1.29873,9.09116 1.41681,4.01428 3.89621,6.96595 2.59748,2.83361 6.13949,4.48655 3.54201,1.53487 7.79242,1.53487 4.25041,0 7.79242,-1.53487 3.54201,-1.65294 6.02142,-4.60461 2.47941,-2.95168 3.77814,-6.84789 1.41681,-4.01428 1.41681,-8.85502 z"
       style="font-family:FreightSans-Book;-inkscape-font-specification:FreightSans-Book"
       id="path371" /><path
       d="m 350.63142,629.91876 h -7.32016 v -54.07468 l 7.32016,-1.53488 v 11.57057 q 2.71554,-5.31301 6.61175,-8.38276 4.01428,-3.18781 9.32729,-3.18781 2.71554,0 5.07688,0.70841 2.47941,0.7084 4.36848,1.771 l -1.88907,6.84789 q -1.77101,-1.06261 -3.89621,-1.65294 -2.00714,-0.7084 -4.36848,-0.7084 -4.25041,0 -8.14662,3.30587 -3.89622,3.30588 -7.08402,10.62603 z"
       style="font-family:FreightSans-Book;-inkscape-font-specification:FreightSans-Book"
       id="path373" /><path
       d="m 421.84847,626.84902 q -3.42394,2.12521 -7.79242,3.30588 -4.25041,1.29873 -8.97309,1.29873 -6.13949,0 -11.0983,-2.00714 -4.84075,-2.1252 -8.26469,-5.90335 -3.42394,-3.77814 -5.31301,-8.97309 -1.77101,-5.31301 -1.77101,-11.57056 0,-6.37562 2.00714,-11.57057 2.00714,-5.31302 5.54915,-9.09116 3.54201,-3.77814 8.38276,-5.90335 4.84074,-2.12521 10.62603,-2.12521 4.95881,0 9.20922,1.18067 4.25041,1.18067 7.67436,3.42395 l -1.88907,6.61175 q -3.06975,-2.00714 -6.96596,-3.18781 -3.77814,-1.18067 -8.02855,-1.18067 -4.36848,0 -7.91049,1.65294 -3.54201,1.53487 -6.02142,4.36848 -2.47941,2.83361 -3.77814,6.84788 -1.29874,3.89621 -1.29874,8.73696 0,4.95882 1.29874,8.97309 1.4168,4.01428 3.89621,6.96596 2.59747,2.83361 6.13948,4.36848 3.54201,1.53487 7.79242,1.53487 4.13235,0 8.02856,-1.18067 3.89621,-1.29874 6.96595,-3.30588 z"
       style="font-family:FreightSans-Book;-inkscape-font-specification:FreightSans-Book"
       id="path375" /><path
       d="m 469.09788,629.91876 v -34.94783 q 0,-7.08402 -2.83361,-10.3899 -2.8336,-3.30587 -8.73695,-3.30587 -4.72268,0 -9.09116,2.1252 -4.25042,2.12521 -7.67436,5.54915 v 40.96925 h -7.32015 V 550.3416 l 7.32015,-1.53487 v 34.12137 q 4.25041,-4.25042 9.20923,-6.37562 5.07688,-2.24328 9.56343,-2.24328 7.91048,0 12.39703,4.84075 4.48655,4.84075 4.48655,13.69577 v 37.07304 z"
       style="font-family:FreightSans-Book;-inkscape-font-specification:FreightSans-Book"
       id="path377" /></g><g
     aria-label="Time"
     id="text642"
     style="font-size:118.067px;font-family:FreightSans-Book;-inkscape-font-specification:FreightSans-Book;text-align:center;letter-spacing:-1.98px;text-anchor:middle;fill:#ee4c2c;stroke-width:0.109;stroke-linecap:square;stroke-linejoin:round"><path
       d="m 522.11785,563.18271 v 66.70785 h -7.55629 v -66.70785 h -25.97474 v -7.08402 h 59.50577 v 7.08402 z"
       id="path380" /><path
       d="m 566.06582,557.98776 q 0,2.12521 -1.29874,3.77814 -1.18067,1.65294 -3.66007,1.65294 -2.47941,0 -3.77815,-1.65294 -1.18067,-1.65293 -1.18067,-3.77814 0,-2.00714 1.18067,-3.54201 1.29874,-1.65294 3.77815,-1.65294 2.4794,0 3.66007,1.65294 1.29874,1.53487 1.29874,3.54201 z m -8.61889,71.9028 v -54.07468 l 7.32015,-1.53487 v 55.60955 z"
       id="path382" /><path
       d="M 647.55915,629.89056 V 595.0608 q 0,-7.08402 -2.83361,-10.3899 -2.71554,-3.42394 -8.61889,-3.42394 -4.36848,0 -8.26469,2.00714 -3.89621,2.00714 -6.96596,4.95881 0.11807,0.59034 0.11807,2.24328 0.11807,1.65293 0.11807,2.59747 v 36.8369 h -7.32016 V 595.0608 q 0,-7.08402 -2.8336,-10.3899 -2.71555,-3.42394 -8.6189,-3.42394 -4.25041,0 -8.14662,1.771 -3.77814,1.77101 -6.84789,4.48655 v 42.38605 h -7.32015 v -54.07468 l 7.32015,-1.53487 v 7.43822 q 4.13235,-3.77815 8.50083,-5.54915 4.48654,-1.88907 8.61889,-1.88907 5.07688,0 8.85503,2.24327 3.77814,2.24327 5.78528,6.72982 4.48654,-4.48655 9.44536,-6.72982 4.95881,-2.24327 9.68149,-2.24327 7.79242,0 12.1609,4.84074 4.48655,4.84075 4.48655,13.81384 v 36.95497 z"
       id="path384" /><path
       d="m 673.44292,603.67969 q 0.11807,4.60461 1.4168,8.50082 1.41681,3.77815 3.89622,6.61176 2.4794,2.71554 5.90335,4.25041 3.42394,1.53487 7.67435,1.53487 4.48655,0 8.50082,-1.18067 4.13235,-1.29874 7.20209,-3.30588 l 1.41681,6.72982 q -3.42395,2.12521 -7.91049,3.30588 -4.36848,1.29873 -9.44536,1.29873 -5.90335,0 -10.7441,-2.00713 -4.72268,-2.12521 -8.14662,-5.78529 -3.42395,-3.77814 -5.31302,-8.97309 -1.88907,-5.19495 -1.88907,-11.33443 0,-6.37562 1.88907,-11.68863 2.00714,-5.31302 5.31302,-9.20923 3.42394,-3.89621 8.02855,-6.02142 4.72268,-2.1252 10.27183,-2.1252 8.97309,0 14.28611,5.43108 5.43108,5.31301 5.43108,14.52224 0,2.12521 -0.3542,4.48655 -0.23613,2.36134 -0.82647,4.13234 l -36.60077,0.23613 z m 30.46129,-6.49369 q 0.11806,-0.47226 0.11806,-1.18067 v -1.18067 q 0,-6.25755 -3.30587,-10.03569 -3.30588,-3.89621 -9.6815,-3.89621 -3.66007,0 -6.61175,1.29874 -2.95167,1.29873 -5.19495,3.54201 -2.1252,2.24327 -3.54201,5.31301 -1.29873,2.95168 -1.771,6.25755 z"
       id="path386" /></g></g><g
   id="g10205"
   style="stroke:none;fill:#ee4c2c;fill-opacity:1"><path
     style="fill:#ee4c2c;fill-opacity:1;stroke:none;stroke-width:0.1;stroke-linecap:square;stroke-linejoin:round;stroke-dasharray:none;stroke-opacity:1"
     d="m 40.042149,586.48732 9.7275,-9.73147 3.638872,3.63898 -9.727968,9.73195 z"
     id="path9027"
     sodipodi:nodetypes="ccccc" /><path
     style="fill:#ee4c2c;fill-opacity:1;stroke:none;stroke-width:0.1;stroke-linecap:square;stroke-linejoin:round;stroke-dasharray:none;stroke-opacity:1"
     d="m 43.705284,596.23812 9.738659,9.72029 -3.636288,3.64157 -9.73914,-9.72077 z"
     id="path9027-9"
     sodipodi:nodetypes="ccccc" /><rect
     style="display:inline;fill:#ee4c2c;fill-opacity:1;stroke:none;stroke-width:0.1;stroke-linecap:square;stroke-linejoin:round;stroke-dasharray:none;stroke-opacity:1"
     id="rect8858"
     width="9.6031599"
     height="9.6023045"
     x="-398.15421"
     y="440.70865"
     transform="rotate(-45.014935,-0.00423951,0.04180284)" /></g></svg>
